<?xml version="1.0" encoding="iso-8859-1"?>
<!-- Generator: Adobe Illustrator 19.0.0, SVG Export Plug-In . SVG Version: 6.00 Build 0)  -->
<svg version="1.1" id="Capa_1" xmlns="http://www.w3.org/2000/svg" xmlns:xlink="http://www.w3.org/1999/xlink" x="0px" y="0px"
	 viewBox="0 0 464.563 464.563" style="enable-background:new 0 0 464.563 464.563;" xml:space="preserve">
<g>
	<g>
		<path d="M441.396,134.17c-4.443-2.371-9.262-3.957-14.245-4.689c-23.892-3.53-46.122,12.977-49.652,36.869
			c-1.648,11.158,1.078,22.521,7.61,31.716l-46.563,42.276c-16.216-17.938-43.903-19.335-61.841-3.119
			c-3.929,3.552-7.182,7.788-9.599,12.501l-53.691-43.337c1.222-24.139-17.355-44.698-41.494-45.92
			c-24.139-1.222-44.698,17.355-45.92,41.494c-0.14,2.766-0.017,5.54,0.367,8.283l-50.609,51.786
			c-16.453-17.685-44.128-18.684-61.813-2.23c-17.685,16.453-18.684,44.128-2.23,61.813c16.453,17.685,44.128,18.684,61.813,2.23
			c11.922-11.092,16.695-27.888,12.387-43.592l48.762-49.894c14.47,19.35,41.886,23.307,61.236,8.837
			c4.458-3.333,8.238-7.487,11.139-12.237l55.289,44.625c0.919,20.972,16.596,38.339,37.364,41.393
			c2.137,0.315,4.295,0.473,6.455,0.474c24.193-0.073,43.747-19.744,43.674-43.937c-0.011-3.741-0.502-7.465-1.459-11.082
			l51.813-47.043c21.323,11.379,47.833,3.318,59.212-18.005C470.78,172.059,462.719,145.549,441.396,134.17z M67.226,295.248
			c-1.898,12.995-13.972,21.992-26.967,20.093c-12.995-1.898-21.992-13.972-20.093-26.967c1.898-12.995,13.972-21.992,26.967-20.093
			c0.012,0.002,0.024,0.004,0.036,0.005C60.143,270.209,69.115,282.269,67.226,295.248z M193.227,207.593L193.227,207.593
			c-1.914,12.982-13.988,21.956-26.97,20.043s-21.956-13.987-20.043-26.969c1.715-11.638,11.686-20.269,23.45-20.297
			c1.171,0.001,2.341,0.086,3.5,0.257C186.142,182.547,195.118,194.61,193.227,207.593z M329.578,273.13
			c-1.913,12.982-13.987,21.956-26.969,20.043c-12.982-1.913-21.956-13.987-20.043-26.969c1.715-11.638,11.688-20.27,23.452-20.297
			c1.171,0,2.341,0.086,3.5,0.257c12.984,1.908,21.964,13.98,20.056,26.965c0,0,0,0.001,0,0.001H329.578z M444.298,176.23
			c-1.903,12.991-13.978,21.98-26.969,20.077c-12.991-1.903-21.98-13.978-20.077-26.969c1.903-12.991,13.978-21.98,26.969-20.077
			c0.007,0.001,0.013,0.002,0.02,0.003c12.984,1.909,21.963,13.982,20.056,26.966H444.298z"/>
	</g>
</g>
<g>
</g>
<g>
</g>
<g>
</g>
<g>
</g>
<g>
</g>
<g>
</g>
<g>
</g>
<g>
</g>
<g>
</g>
<g>
</g>
<g>
</g>
<g>
</g>
<g>
</g>
<g>
</g>
<g>
</g>
</svg>
