<?xml version="1.0" encoding="iso-8859-1"?>
<!-- Generator: Adobe Illustrator 17.1.0, SVG Export Plug-In . SVG Version: 6.00 Build 0)  -->
<!DOCTYPE svg PUBLIC "-//W3C//DTD SVG 1.1//EN" "http://www.w3.org/Graphics/SVG/1.1/DTD/svg11.dtd">
<svg version="1.1" id="Capa_1" xmlns="http://www.w3.org/2000/svg" xmlns:xlink="http://www.w3.org/1999/xlink" x="0px" y="0px"
	 viewBox="0 0 262.541 262.541" style="enable-background:new 0 0 262.541 262.541;" xml:space="preserve">
<g>
	<path style="fill:#000002;" d="M230.563,0h-13.104h-10H56.92h-7H31.979C18.697,0,7.892,10.806,7.892,24.088v214.366
		c0,13.282,10.806,24.087,24.087,24.087h198.584c13.281,0,24.087-10.805,24.087-24.087V24.088C254.649,10.806,243.844,0,230.563,0z
		 M65.943,15h98.973c-0.189,0.66-0.297,1.354-0.297,2.075v34.847c0,0.494,0.051,0.976,0.143,1.443H67.887
		c-1.054,0-1.943-0.89-1.943-1.944V15z M179.322,15h17.275v36.421c0,1.054-0.89,1.944-1.943,1.944h-15.178
		c0.092-0.467,0.143-0.949,0.143-1.443V17.075C179.619,16.354,179.512,15.66,179.322,15z M239.649,238.454
		c0,5.011-4.076,9.087-9.087,9.087H31.979c-5.011,0-9.087-4.076-9.087-9.087V24.088c0-5.011,4.076-9.088,9.087-9.088H49.92h1.023
		v36.421c0,9.344,7.601,16.944,16.943,16.944h126.768c9.343,0,16.943-7.6,16.943-16.944V15h5.861h13.104
		c5.011,0,9.087,4.077,9.087,9.088V238.454z"/>
	<path style="fill:#000002;" d="M203.637,110.301H58.906c-7.698,0-13.961,6.262-13.961,13.96v78.956
		c0,7.697,6.263,13.959,13.961,13.959h144.73c7.697,0,13.959-6.262,13.959-13.959v-78.956
		C217.596,116.563,211.334,110.301,203.637,110.301z M202.596,202.176H59.945v-76.875h142.65V202.176z"/>
	<path style="fill:#000002;" d="M74.109,162.612h60.064c4.143,0,7.5-3.358,7.5-7.5c0-4.142-3.357-7.5-7.5-7.5H74.109
		c-4.143,0-7.5,3.358-7.5,7.5C66.609,159.254,69.967,162.612,74.109,162.612z"/>
</g>
<g>
</g>
<g>
</g>
<g>
</g>
<g>
</g>
<g>
</g>
<g>
</g>
<g>
</g>
<g>
</g>
<g>
</g>
<g>
</g>
<g>
</g>
<g>
</g>
<g>
</g>
<g>
</g>
<g>
</g>
</svg>
